<svg width="210" height="84" viewBox="0 0 210 84" fill="none" xmlns="http://www.w3.org/2000/svg">
<path d="M82.5954 33.7915C85.7598 47.6176 80.7454 67.1396 63.0733 77.6552C46.1801 87.684 24.8567 84.6656 11.3227 70.3527C-1.96786 56.2832 -3.76915 34.7165 7.03859 18.505C18.4305 1.46581 37.5145 -1.9907 49.8314 0.930297C49.1498 0.881614 48.4196 0.83293 47.738 0.784247C41.1657 0.589514 35.0316 2.05001 29.2383 5.11706C22.2278 8.86568 16.6779 14.1235 12.978 21.2799C10.9819 25.1259 9.76486 29.2153 9.27803 33.5481C8.20699 42.3598 10.057 50.4899 14.8766 57.8411C20.4752 66.3607 28.3133 71.7159 38.3908 73.7606C41.5552 74.3934 44.7683 74.6855 48.0301 74.4421C57.4747 73.6632 65.5561 69.9633 72.1284 63.0015C77.4349 57.3543 80.8428 50.7333 82.2546 43.0901C82.8388 40.1204 82.8875 37.102 82.6441 34.0836C82.5954 33.9863 82.5954 33.8889 82.5954 33.7915Z" fill="#2D588B"/>
<path d="M37.4657 71.3264C47.8353 72.7869 56.9391 70.2067 64.6311 63.0015C70.7653 57.2082 74.027 50.1004 74.2705 41.6781C74.806 23.5679 61.0772 9.547 43.6485 9.15754C33.6197 8.91412 25.3436 12.9062 19.0147 20.5495C12.6858 28.2415 10.8359 37.1992 12.4424 46.9846C12.3937 46.936 12.2964 46.936 12.2964 46.8873C11.3227 43.6742 10.6411 40.4124 10.8846 37.0045C11.128 33.8401 11.6635 30.6757 12.5398 27.6086C13.6595 23.5679 15.6555 20.014 18.2844 16.7522C23.883 9.74174 31.1369 5.45759 40.046 4.04577C56.1115 1.51422 71.6416 10.5694 77.6296 25.7586C84.8835 44.161 74.5626 67.2857 52.2655 72.008C47.2511 73.0303 42.3341 72.8356 37.4657 71.3264Z" fill="#E30413"/>
<path d="M32.2565 18.6509C39.3643 18.6509 46.4234 18.6509 53.5312 18.6509C53.5312 22.3021 53.5312 25.9047 53.5312 29.6047C53.8233 29.6047 54.0667 29.6047 54.2614 29.6047C57.4745 29.6047 60.6876 29.6047 63.9008 29.6047C64.3389 29.6047 64.5336 29.702 64.5336 30.1889C64.5336 36.9072 64.5336 43.5768 64.5336 50.2951C64.5336 50.4412 64.5336 50.5872 64.485 50.782C61.71 50.782 58.9837 50.782 56.2088 50.782C56.2088 49.4675 56.2088 48.1531 56.2088 46.7413C57.3772 46.7413 58.4969 46.7413 59.6653 46.7413C60.4442 46.7413 60.4442 46.7413 60.4442 45.9623C60.4442 42.0676 60.4442 38.2216 60.4442 34.327C60.4442 33.5967 60.4442 33.5967 59.6653 33.5967C56.5009 33.5967 53.3364 33.5967 50.2207 33.5967C49.9773 33.5967 49.7825 33.5967 49.4904 33.5967C49.4904 29.9454 49.4904 26.3429 49.4904 22.6429C45.1089 22.6429 40.8248 22.6429 36.4433 22.6429C36.4433 22.8377 36.3946 23.0324 36.3946 23.2271C36.3946 27.9494 36.3459 32.6717 36.3946 37.3453C36.4433 40.169 37.709 42.4084 40.0945 44.015C40.2893 44.161 40.5814 44.2584 40.9222 44.4531C40.9222 43.5281 40.9222 42.7005 40.9222 41.8729C40.9222 41.4348 41.0682 41.24 41.5064 41.2887C42.6261 41.3374 43.7458 41.2887 44.9142 41.2887C44.9142 44.1123 44.9142 46.8386 44.9142 49.6136C43.405 49.5649 41.9932 49.3215 40.5814 48.8346C36.3459 47.3741 33.9117 44.2584 32.7433 40.0229C32.4026 38.8545 32.3052 37.5888 32.2565 36.4204C32.2078 30.7244 32.2565 25.0284 32.2565 19.3811C32.2565 19.1377 32.2565 18.943 32.2565 18.6509Z" fill="#2D588B"/>
<path d="M32.2077 50.8305C28.5077 50.8305 24.9052 50.8305 21.2539 50.8305C21.2539 43.7227 21.2539 36.6636 21.2539 29.6045C24.0289 29.6045 26.7551 29.6045 29.5788 29.6045C29.5788 30.9676 29.5788 32.2821 29.5788 33.6939C28.2156 33.6939 26.8038 33.6939 25.392 33.6939C25.392 38.0754 25.392 42.4083 25.392 46.7898C29.0433 46.7898 32.6458 46.7898 36.3458 46.7898C36.3458 50.4897 36.3458 54.141 36.3458 57.7923C40.7273 57.7923 44.9628 57.7923 49.2956 57.7923C49.2956 57.5489 49.3443 57.3541 49.3443 57.1594C49.3443 52.5831 49.393 47.9582 49.3443 43.3819C49.2956 40.607 48.2246 38.2702 45.8878 36.6149C45.693 36.4689 45.4983 36.3715 45.3036 36.2255C45.2062 36.1768 45.1088 36.1281 44.9141 36.0307C44.9141 37.0531 44.9141 38.0754 44.9141 39.0978C43.5023 39.0978 42.1878 39.0978 40.8247 39.0978C40.8247 36.3228 40.8247 33.5965 40.8247 30.7729C42.8694 30.8703 44.8167 31.211 46.6667 32.136C50.1719 33.8886 52.1679 36.8097 53.1416 40.5096C53.4337 41.6293 53.5797 42.7491 53.5797 43.9175C53.6284 49.6134 53.5797 55.3094 53.5797 61.0541C53.5797 61.2975 53.5797 61.5409 53.5797 61.833C46.472 61.833 39.4128 61.833 32.2564 61.833C32.2077 58.1331 32.2077 54.5305 32.2077 50.8305Z" fill="#E30413"/>
<path d="M190.38 43.6252C190.38 49.7109 190.38 55.7479 190.38 61.8337C188.823 61.8337 187.265 61.8337 185.61 61.8337C185.756 57.1598 185.902 52.486 186.096 47.8609C186.048 47.8609 185.95 47.8122 185.902 47.8122C185.804 48.0069 185.707 48.2503 185.61 48.4451C184.198 52.6807 182.786 56.9651 181.423 61.2494C181.277 61.785 181.033 61.9797 180.498 61.931C179.524 61.8823 178.55 61.8823 177.577 61.931C177.139 61.931 176.944 61.785 176.798 61.3468C175.386 57.0138 173.925 52.7294 172.465 48.3964C172.416 48.2017 172.319 48.0069 172.27 47.8122C172.222 47.8122 172.124 47.8122 172.076 47.8609C172.222 52.486 172.416 57.1598 172.562 61.8823C172.173 61.8823 171.832 61.8823 171.491 61.8823C170.42 61.8823 169.398 61.8823 168.327 61.8823C167.84 61.8823 167.743 61.7363 167.743 61.2981C167.743 59.4967 167.743 57.6954 167.743 55.8453C167.743 51.9991 167.743 48.153 167.743 44.2581C167.743 43.7226 167.889 43.5278 168.473 43.5278C170.615 43.5765 172.757 43.5765 174.899 43.5278C175.337 43.5278 175.532 43.6739 175.678 44.1121C176.7 47.5201 177.723 50.9767 178.794 54.3847C178.891 54.6282 178.989 54.8716 179.086 55.115C179.135 55.115 179.183 55.115 179.232 55.115C179.281 54.9203 179.378 54.7255 179.427 54.4821C180.449 51.0254 181.423 47.5687 182.396 44.1121C182.542 43.6739 182.689 43.5278 183.127 43.5278C185.366 43.5278 187.557 43.5278 189.796 43.5278C189.942 43.6252 190.137 43.6252 190.38 43.6252Z" fill="#2D588B"/>
<path d="M137.948 24.2013C138.046 28.8747 138.143 33.4995 138.241 38.2216C136.634 38.2216 135.076 38.2216 133.421 38.2216C133.421 32.1364 133.421 26.0512 133.421 19.9173C133.518 19.9173 133.567 19.8687 133.664 19.8687C136.196 19.8687 138.727 19.8687 141.259 19.8687C141.648 19.8687 141.746 20.1121 141.843 20.3555C143.45 24.6881 145.105 29.0695 146.711 33.4021C146.76 33.5968 146.858 33.7916 146.955 33.9863C147.004 33.9863 147.101 33.9863 147.15 33.9376C147.052 29.2642 146.955 24.5908 146.858 19.9173C148.464 19.9173 150.071 19.9173 151.726 19.9173C151.726 26.0025 151.726 32.0877 151.726 38.2216C151.531 38.2216 151.385 38.2703 151.239 38.2703C148.805 38.2703 146.371 38.2703 143.937 38.2703C143.547 38.2703 143.352 38.1242 143.255 37.7834C141.697 33.4508 140.091 29.1181 138.484 24.8342C138.387 24.5908 138.289 24.396 138.192 24.1526C138.095 24.2013 137.997 24.2013 137.948 24.2013Z" fill="#E30413"/>
<path d="M207.03 38.2703C205.423 38.2703 203.817 38.2703 202.162 38.2703C202.162 37.54 202.162 36.8585 202.162 36.1769C202.162 35.6901 202.113 35.1545 202.016 34.6677C201.87 33.9375 201.334 33.4993 200.604 33.4506C199.192 33.402 197.829 33.4506 196.32 33.4506C196.32 35.0572 196.32 36.6637 196.32 38.2703C194.664 38.2703 193.107 38.2703 191.5 38.2703C191.5 32.1849 191.5 26.0508 191.5 19.9168C191.695 19.9168 191.889 19.8681 192.084 19.8681C195.005 19.8681 197.878 19.8194 200.799 19.8681C201.772 19.8681 202.795 19.9654 203.768 20.1602C205.764 20.5496 206.835 21.572 207.079 23.6167C207.225 25.1258 207.176 26.6837 207.079 28.1929C206.981 29.556 206.008 30.3349 204.742 30.7731C204.401 30.8704 204.109 30.9678 203.768 31.2112C204.06 31.2599 204.304 31.3086 204.596 31.3573C206.056 31.6494 206.981 32.623 207.03 34.1322C207.079 35.544 207.03 36.9071 207.03 38.2703ZM196.368 29.0692C197.926 29.0692 199.484 29.1179 200.993 29.0692C201.626 29.0692 202.064 28.631 202.113 27.9981C202.162 27.2192 202.21 26.3916 202.162 25.6127C202.064 24.5903 201.675 24.2009 200.604 24.2009C199.484 24.1522 198.364 24.2009 197.245 24.1522C196.953 24.1522 196.66 24.1522 196.417 24.1522C196.368 25.8561 196.368 27.4626 196.368 29.0692Z" fill="#E30413"/>
<path d="M149.584 61.9305C149.584 55.7963 149.584 49.7596 149.584 43.6742C149.779 43.6742 149.973 43.6255 150.12 43.6255C153.284 43.6255 156.448 43.6255 159.564 43.6255C160.343 43.6255 161.122 43.7715 161.852 43.9176C163.8 44.3071 164.871 45.5241 165.065 47.4228C165.211 48.8833 165.163 50.3925 165.065 51.853C164.968 53.3622 163.897 54.1411 162.534 54.5793C162.29 54.6766 161.998 54.774 161.755 54.8714C161.755 54.92 161.755 54.9687 161.755 55.0174C162.047 55.0661 162.388 55.1148 162.68 55.2121C164.14 55.5529 164.968 56.5266 165.017 58.0845C165.017 59.3502 165.017 60.616 165.017 61.9791C164.481 61.9791 163.946 61.9791 163.41 61.9791C162.534 61.9791 161.609 61.9791 160.732 61.9791C160.343 61.9791 160.246 61.8818 160.246 61.4923C160.246 60.616 160.246 59.7884 160.197 58.9121C160.1 57.7437 159.467 57.1108 158.25 57.1108C157.081 57.0621 155.961 57.1108 154.793 57.1108C154.404 57.1108 154.306 57.3055 154.306 57.6463C154.306 58.9121 154.306 60.1779 154.306 61.4436C154.306 61.8818 154.16 62.0278 153.722 62.0278C152.408 61.8818 150.996 61.9305 149.584 61.9305ZM154.306 50.2951C154.306 50.9767 154.306 51.6096 154.306 52.2911C154.306 52.7293 154.452 52.8753 154.89 52.8267C155.621 52.778 156.351 52.8267 157.13 52.8267C157.811 52.8267 158.542 52.778 159.223 52.7293C159.759 52.6806 160.1 52.2911 160.197 51.7556C160.294 50.9767 160.343 50.1978 160.294 49.4188C160.197 48.2017 159.71 47.7636 158.493 47.7636C157.276 47.7149 156.059 47.7636 154.89 47.7636C154.501 47.7636 154.355 47.9096 154.355 48.2504C154.355 48.932 154.306 49.6136 154.306 50.2951Z" fill="#2D588B"/>
<path d="M112.633 43.6254C112.828 43.6254 112.925 43.5767 113.071 43.5767C114.483 43.5767 115.846 43.5767 117.355 43.5767C117.355 43.8688 117.404 44.0635 117.404 44.3069C117.404 46.1082 117.404 47.9095 117.404 49.7595C117.404 50.4897 117.404 50.4897 118.183 50.4897C119.887 50.4897 121.591 50.4897 123.343 50.4897C123.83 50.4897 123.976 50.3437 123.976 49.8569C123.976 48.0069 123.976 46.1082 123.976 44.2582C123.976 43.7714 124.073 43.528 124.658 43.5767C126.021 43.6254 127.335 43.5767 128.747 43.5767C128.747 49.6621 128.747 55.7476 128.747 61.833C127.189 61.833 125.68 61.833 124.073 61.833C124.073 61.6383 124.025 61.3949 124.025 61.1514C124.025 59.2041 124.025 57.2568 124.025 55.3094C124.025 54.7739 123.879 54.5792 123.343 54.6278C121.591 54.6765 119.887 54.6765 118.134 54.6278C117.599 54.6278 117.452 54.7739 117.452 55.3094C117.501 57.2568 117.452 59.1554 117.452 61.1028C117.452 61.3462 117.452 61.5409 117.452 61.833C115.846 61.833 114.288 61.833 112.73 61.833C112.633 55.7962 112.633 49.7595 112.633 43.6254Z" fill="#2D588B"/>
<path d="M99.9267 57.2082C99.9267 58.8148 99.9267 60.324 99.9267 61.8818C98.3202 61.8818 96.7136 61.8818 95.1558 61.8818C95.1558 55.7964 95.1558 49.7596 95.1558 43.6742C95.3018 43.6742 95.4965 43.6255 95.6426 43.6255C98.7583 43.6255 101.874 43.6255 104.99 43.6255C105.671 43.6255 106.353 43.7715 106.986 43.9176C108.933 44.4044 109.956 45.7676 110.345 47.7149C110.686 49.6136 110.686 51.5609 110.345 53.4596C109.907 55.7964 108.544 56.9648 106.11 57.1108C104.308 57.2082 102.556 57.2082 100.754 57.2082C100.511 57.2082 100.268 57.2082 99.9267 57.2082ZM99.9267 50.4412C99.9267 51.1228 99.9267 51.853 99.9267 52.5346C99.9267 52.9241 100.024 53.0701 100.414 53.0701C101.679 53.0214 102.945 53.0214 104.211 52.9727C104.99 52.9241 105.428 52.5346 105.477 51.8043C105.525 50.928 105.525 50.0517 105.477 49.1754C105.428 48.3965 105.039 47.9583 104.26 47.9096C102.945 47.8123 101.582 47.8123 100.219 47.8123C100.121 47.8123 99.9267 48.0557 99.9267 48.2017C99.9267 48.932 99.9267 49.6623 99.9267 50.4412Z" fill="#2D588B"/>
<path d="M148.367 61.8818C146.809 61.8818 145.299 61.8818 143.79 61.8818C143.644 61.8818 143.449 61.6384 143.401 61.4924C143.157 60.7621 142.914 59.9831 142.719 59.2042C142.622 58.8634 142.476 58.7174 142.135 58.7174C140.236 58.7174 138.338 58.7174 136.39 58.7174C136.001 58.7174 135.855 58.8634 135.757 59.2042C135.563 59.9345 135.368 60.7134 135.125 61.4437C135.076 61.5897 134.881 61.8331 134.735 61.8331C133.177 61.8818 131.668 61.8331 130.062 61.8331C130.11 61.6384 130.11 61.4437 130.159 61.2976C131.863 55.5529 133.615 49.7594 135.319 44.0147C135.417 43.6739 135.563 43.5278 135.952 43.5278C138.094 43.5278 140.236 43.5278 142.378 43.5278C142.768 43.5278 142.914 43.6739 143.011 44.0147C144.764 49.8081 146.517 55.5529 148.269 61.3463C148.318 61.541 148.318 61.6871 148.367 61.8818ZM136.926 55.2121C138.532 55.2121 139.993 55.2121 141.6 55.2121C140.821 52.5344 140.09 49.9055 139.311 47.2765C139.263 47.2765 139.214 47.2765 139.117 47.2765C138.435 49.9055 137.705 52.5344 136.926 55.2121Z" fill="#2D588B"/>
<path d="M210 61.8817C208.442 61.8817 206.884 61.8817 205.375 61.8817C205.278 61.8817 205.083 61.687 205.034 61.4922C204.791 60.762 204.548 59.9831 204.353 59.2042C204.256 58.8634 204.109 58.7173 203.72 58.7173C201.821 58.7173 199.923 58.7173 198.073 58.7173C197.635 58.7173 197.489 58.8634 197.391 59.2528C197.196 59.9831 197.002 60.762 196.758 61.4922C196.71 61.6383 196.515 61.8817 196.369 61.8817C194.811 61.9304 193.302 61.8817 191.646 61.8817C191.744 61.4922 191.841 61.2001 191.89 60.908C193.545 55.3096 195.249 49.7598 196.904 44.1613C197.05 43.7232 197.196 43.5284 197.683 43.5771C199.777 43.6258 201.87 43.5771 203.963 43.5771C204.304 43.5771 204.499 43.6258 204.596 44.0153C206.349 49.9058 208.15 55.7477 209.951 61.6383C209.951 61.687 210 61.7843 210 61.8817ZM203.184 55.2122C202.406 52.5347 201.675 49.9058 200.896 47.277C200.848 47.277 200.799 47.277 200.75 47.277C200.02 49.9058 199.29 52.5347 198.511 55.2122C200.117 55.2122 201.627 55.2122 203.184 55.2122Z" fill="#2D588B"/>
<path d="M105.72 26.4403C105.671 26.3429 105.671 26.2942 105.671 26.2942C105.525 24.5416 105.233 24.2008 103.48 24.0547C102.799 24.006 102.069 24.0547 101.387 24.1034C100.365 24.2495 99.7318 24.785 99.7318 25.8074C99.6831 27.9982 99.6831 30.1403 99.7318 32.3311C99.7805 33.3535 100.316 33.9377 101.338 34.035C102.312 34.1324 103.334 34.1324 104.308 34.035C105.184 33.9377 105.623 33.4021 105.72 32.5258C105.769 32.1364 105.769 31.7956 105.817 31.3574C107.472 31.3574 109.128 31.3574 110.832 31.3574C110.832 32.7206 110.929 34.0837 110.394 35.3982C109.712 37.0048 108.397 37.8811 106.742 38.1732C104.162 38.6114 101.533 38.5627 98.9529 38.1245C96.6161 37.7351 95.2042 36.2745 94.9121 33.889C94.474 30.8219 94.5227 27.7061 94.8635 24.6389C95.2042 21.9126 96.5674 20.5495 99.3423 20.0626C101.825 19.5758 104.357 19.5271 106.888 20.1113C109.322 20.6468 110.637 22.2534 110.832 24.7363C110.929 26.4403 110.929 26.4403 109.225 26.4403C108.349 26.4403 107.424 26.4403 106.548 26.4403C106.109 26.489 105.866 26.4403 105.72 26.4403Z" fill="#E30413"/>
<path d="M114.97 38.2703C114.97 32.1362 114.97 26.0507 114.97 19.9653C119.351 19.9653 123.733 19.9653 128.212 19.9653C128.212 21.1824 128.212 22.3995 128.212 23.6166C128.212 23.7139 127.871 23.9087 127.725 23.9087C125.924 23.9087 124.122 23.9087 122.37 23.9087C121.591 23.9087 120.763 23.9087 119.935 23.9087C119.935 25.0284 119.935 26.0994 119.935 27.2678C122.516 27.2678 125.096 27.2678 127.676 27.2678C127.676 28.4362 127.676 29.5073 127.676 30.6757C125.096 30.6757 122.516 30.6757 119.887 30.6757C119.887 31.8927 119.887 33.0611 119.887 34.2782C122.71 34.2782 125.485 34.2782 128.358 34.2782C128.358 35.6414 128.358 36.9558 128.358 38.2703C123.879 38.2703 119.449 38.2703 114.97 38.2703Z" fill="#E30413"/>
<path d="M173.146 38.2703C173.146 32.1362 173.146 26.0507 173.146 19.9653C177.528 19.9653 181.91 19.9653 186.291 19.9653C186.291 21.2798 186.291 22.5456 186.291 23.9087C183.516 23.9087 180.79 23.9087 178.015 23.9087C178.015 25.0771 178.015 26.1481 178.015 27.2678C180.595 27.2678 183.175 27.2678 185.804 27.2678C185.804 28.4362 185.804 29.5073 185.804 30.6757C183.224 30.6757 180.644 30.6757 178.015 30.6757C178.015 31.8927 178.015 33.0611 178.015 34.2782C180.838 34.2782 183.613 34.2782 186.486 34.2782C186.486 35.6414 186.486 36.9558 186.486 38.2703C182.056 38.2703 177.625 38.2703 173.146 38.2703Z" fill="#E30413"/>
<path d="M164.725 38.2703C163.069 38.2703 161.463 38.2703 159.856 38.2703C159.856 33.5481 159.856 28.8746 159.856 24.1524C158.25 24.1524 156.74 24.1524 155.183 24.1524C155.183 22.6919 155.183 21.3288 155.183 19.917C160.002 19.917 164.822 19.917 169.642 19.917C169.642 21.3288 169.642 22.6919 169.642 24.1524C167.986 24.1524 166.429 24.1524 164.725 24.1524C164.725 28.8746 164.725 33.5481 164.725 38.2703Z" fill="#E30413"/>
<path d="M59.0812 20.6467C61.0773 20.6467 62.6351 22.2533 62.6351 24.2007C62.6351 26.1481 61.0286 27.7546 59.0812 27.7546C57.1339 27.7546 55.5273 26.1481 55.5273 24.2007C55.5273 22.2533 57.1339 20.6467 59.0812 20.6467Z" fill="#E30413"/>
<path d="M30.2119 56.2833C30.2119 58.2305 28.6054 59.7883 26.658 59.7396C24.7107 59.7396 23.1528 58.1818 23.1528 56.1859C23.1528 54.19 24.7594 52.6809 26.7554 52.6809C28.7027 52.7296 30.2119 54.2874 30.2119 56.2833Z" fill="#E30413"/>
</svg>
