<svg width="63" height="44" viewBox="0 0 63 44" fill="none" xmlns="http://www.w3.org/2000/svg">
<g clip-path="url(#clip0)">
<path fill-rule="evenodd" clip-rule="evenodd" d="M23.5462 33.9866C30.2565 33.9996 36.0986 28.344 36.139 21.7967C36.1816 15.3038 30.335 9.54139 23.6337 9.4629C16.6429 9.38223 10.637 15.1163 10.6101 21.8948C10.5854 28.3397 16.6115 33.9713 23.5462 33.9866ZM36.1435 3.24259V0.220741H47.0447V42.8472H36.2983C36.2198 42.1102 36.1435 41.4082 36.0605 40.6189C22.7385 46.6452 11.2495 45.0274 3.06518 32.4386C-2.05451 24.5591 -0.528923 14.1069 5.93014 7.15835C13.3337 -0.808345 23.2052 -2.14049 36.1435 3.24259Z" fill="#3D3D3D"/>
<path d="M63.0001 32.1982H52.5117V42.6679H63.0001V32.1982Z" fill="#3D3D3D"/>
</g>
<defs>
<clipPath id="clip0">
<rect width="63" height="44" fill="white"/>
</clipPath>
</defs>
</svg>
