<svg width="542" height="168" viewBox="0 0 542 168" fill="none" xmlns="http://www.w3.org/2000/svg">
<path d="M101.553 50.4311C65.1963 34.9037 37.4633 38.7431 16.6611 61.723C-1.48401 81.769 -5.77681 111.918 8.61449 134.643C31.6103 170.953 63.8915 175.622 101.326 158.236C101.562 160.51 101.77 162.538 101.997 164.67H132.189V41.7146H101.553V50.4311ZM66.1513 139.115C46.6635 139.077 29.7381 122.833 29.8043 104.239C29.88 84.6839 46.7486 68.1471 66.3972 68.383C85.2326 68.6094 101.647 85.2311 101.534 103.956C101.42 122.842 85.0057 139.153 66.1513 139.115Z" fill="#3D3D3D"/>
<path d="M177.083 42.0354H147.752V164.661H177.083V42.0354Z" fill="#3D3D3D"/>
<path d="M328.278 38.3563C319.872 38.3563 312.373 39.9789 305.811 43.2146C299.249 46.4502 293.67 51.1669 289.103 57.3458C285.416 51.6009 280.395 47.0068 274.05 43.5447C267.705 40.0921 260.775 38.3563 253.248 38.3563C246.752 38.3563 240.663 39.6865 234.989 42.3278C229.912 44.6956 225.761 47.9501 222.518 52.0726V42.0354H193.187V164.661H222.518H223.378V99.7491C223.227 88.712 225.146 80.354 229.127 74.6845C233.108 69.015 239.159 66.185 247.272 66.185C255.385 66.185 261.437 69.0244 265.417 74.6845C269.398 80.354 271.393 88.7026 271.393 99.7491V164.661H300.828V99.7491C300.828 88.712 302.785 80.3917 306.691 74.7977C310.596 69.2037 316.609 66.3359 324.732 66.185C332.845 66.185 338.896 69.0244 342.877 74.6845C346.858 80.354 348.853 88.7026 348.853 99.7491V164.661H378.288V93.1174C378.288 76.1938 373.711 62.8361 364.568 53.0442C355.424 43.2523 343.331 38.3563 328.278 38.3563Z" fill="#3D3D3D"/>
<path d="M487.395 98.136C482.781 95.4758 478.128 93.4004 473.438 91.9099C468.749 90.4289 462.971 89.1554 456.106 88.0894L451.974 87.4008C450.064 87.0989 448.599 86.8536 447.568 86.6555C446.537 86.4574 445.166 86.1838 443.446 85.7971C441.725 85.4103 440.372 85.0707 439.38 84.7688C438.387 84.467 437.186 84.0802 435.777 83.6274C434.368 83.1746 433.262 82.6557 432.458 82.0897C431.654 81.5143 430.879 80.8917 430.113 80.203C429.347 79.5144 428.818 78.7409 428.515 77.8636C428.213 76.9863 428.061 76.0146 428.061 74.9486C428.061 71.8262 429.678 69.3357 432.922 67.4679C436.165 65.6001 440.609 64.6756 446.254 64.6756C451.596 64.6756 455.832 65.5718 458.953 67.3547C462.082 69.1471 464.049 71.0432 464.843 73.0619C465.647 75.0807 466.196 77.5711 466.498 80.5427H496.482C495.489 68.5905 490.553 59.1005 481.665 52.0631C472.786 45.0258 460.749 41.5071 445.573 41.5071C430.161 41.5071 418.076 45.0446 409.302 52.1197C400.527 59.1948 396.14 68.5999 396.14 80.3162C396.14 86.2499 397.397 91.4854 399.912 96.0135C402.427 100.542 405.293 103.966 408.498 106.286C411.703 108.607 415.883 110.626 421.026 112.333C426.18 114.05 430.161 115.154 432.988 115.644C435.815 116.135 439.399 116.616 443.748 117.069C447.483 117.522 450.443 117.946 452.617 118.324C454.792 118.701 457.251 119.333 460.002 120.21C462.744 121.088 464.749 122.248 466.006 123.691C467.264 125.134 467.898 126.965 467.898 129.172C467.898 132.596 466.139 135.53 462.631 137.964C459.123 140.398 454.395 141.615 448.438 141.615C440.807 141.615 435.03 139.945 431.106 136.596C427.182 133.247 424.988 128.983 424.525 123.814H393.397C394.012 136.756 399.042 146.822 408.498 154.01C417.953 161.198 431.116 164.802 447.975 164.802C464.068 164.802 476.965 161.472 486.648 154.812C496.34 148.152 501.181 138.275 501.181 125.191C501.181 118.795 500.037 113.352 497.749 108.862C495.46 104.372 492.009 100.796 487.395 98.136Z" fill="#3D3D3D"/>
<path d="M177.007 0H147.544V30.1964H177.007V0Z" fill="#3D3D3D"/>
<path d="M541.991 133.955H512.527V164.151H541.991V133.955Z" fill="#3D3D3D"/>
</svg>
